<svg xmlns="http://www.w3.org/2000/svg" width="372" height="372" fill="none">
  <path fill="#000" fill-rule="evenodd" d="M217.188.96c-.548.184-2.341.622-3.985.976-2.263.486-28.126 25.759-106.391 103.961C9.501 203.131 3.322 209.511 1.919 214.199c-.945 3.155-1.262 6.626-.867 9.466.61 4.375 2.314 6.176 70.518 74.548 38.441 38.536 71.103 70.706 72.582 71.492 1.481.785 5.289 1.427 8.465 1.427h5.774l106.371-106.37 106.37-106.371v-5.774c0-3.29-.684-7.146-1.59-8.963-.875-1.754-32.373-34.025-69.997-71.715C235.918 8.2 230.794 3.31 226.224 1.942 221.452.514 219.247.274 217.188.96Zm58.291 94.669 55.294 55.3-89.671 89.675-89.671 89.675-55.552-55.546-55.553-55.547 89.425-89.429c49.185-49.186 89.652-89.43 89.929-89.43.277 0 25.387 24.885 55.799 55.302Z" clip-rule="evenodd"/>
</svg>
