<svg xmlns="http://www.w3.org/2000/svg">

  <symbol viewBox="0 0 36 36" id="icon-account" fill="currentColor">
    <path d="M18.434 6.333a5.833 5.833 0 1 1 0 11.667 5.833 5.833 0 0 1 0-11.667Zm0 14.584c6.445 0 11.666 2.61 11.666 5.833v2.917H6.767V26.75c0-3.223 5.22-5.833 11.667-5.833Z" />
  </symbol>

  <symbol viewBox="0 0 36 36" id="icon-burger" fill="currentColor">
    <path fill-rule="evenodd" d="M6.184 9.25a1.75 1.75 0 0 1 1.75-1.75h21a1.75 1.75 0 0 1 0 3.5h-21a1.75 1.75 0 0 1-1.75-1.75Zm0 8.75a1.75 1.75 0 0 1 1.75-1.75h21a1.75 1.75 0 0 1 0 3.5h-21A1.75 1.75 0 0 1 6.184 18Zm0 8.75A1.75 1.75 0 0 1 7.934 25h10.5a1.75 1.75 0 0 1 0 3.5h-10.5a1.75 1.75 0 0 1-1.75-1.75Z" clip-rule="evenodd" />
  </symbol>

  <symbol viewBox="0 0 45 45" id="icon-play" fill="currentColor">
    <g clip-path="url(#a)">
      <path d="M16.55 12.929c.659-.378 1.476-.44 2.127.035l12.656 7.734a2.12 2.12 0 0 1 1.01 1.802 2.12 2.12 0 0 1-1.01 1.802l-12.656 7.734a2.095 2.095 0 0 1-2.127.035 2.096 2.096 0 0 1-1.081-1.837V14.686c0-.685.413-1.388 1.08-1.757ZM45 22.5C45 34.928 34.928 45 22.5 45S0 34.928 0 22.5 10.072 0 22.5 0 45 10.072 45 22.5ZM22.5 4.219C12.401 4.219 4.219 12.4 4.219 22.5c0 10.099 8.182 18.281 18.281 18.281 10.099 0 18.281-8.182 18.281-18.281 0-10.099-8.182-18.281-18.281-18.281Z" />
    </g>
    <defs>
      <clipPath id="a">
        <path d="M0 0h45v45H0z" />
      </clipPath>
    </defs>
  </symbol>

  <symbol viewBox="0 0 81 99" id="icon-scroll" fill="none">
    <g fill="currentColor" filter="url(#b)">
      <path d="M40.428 78.25h.072c11.095 0 20.125-9.028 20.125-20.125v-17.25c0-11.043-8.99-20.05-20.07-20.125h-.173c-11.04.063-20.007 9.076-20.007 20.125v17.25c0 11.097 8.996 20.125 20.053 20.125ZM26.125 40.875A14.395 14.395 0 0 1 40.457 26.5c7.95.017 14.418 6.466 14.418 14.375v17.25c0 7.926-6.449 14.375-14.375 14.375h-.072c-8.018 0-14.303-6.314-14.303-14.375v-17.25Z" />
      <path d="M37.625 32.25h5.75V49.5h-5.75V32.25Z" />
    </g>
    <defs>
      <filter id="b" width="109" height="109" x="-14" y="-5" color-interpolation-filters="sRGB" filterUnits="userSpaceOnUse">
        <feFlood flood-opacity="0" result="BackgroundImageFix" />
        <feColorMatrix in="SourceAlpha" result="hardAlpha" values="0 0 0 0 0 0 0 0 0 0 0 0 0 0 0 0 0 0 127 0" />
        <feOffset />
        <feGaussianBlur stdDeviation="10" />
        <feComposite in2="hardAlpha" operator="out" />
        <feColorMatrix values="0 0 0 0 0 0 0 0 0 0 0 0 0 0 0 0 0 0 0.5 0" />
        <feBlend in2="BackgroundImageFix" result="effect1_dropShadow_5_73" />
        <feBlend in="SourceGraphic" in2="effect1_dropShadow_5_73" result="shape" />
      </filter>
    </defs>
  </symbol>

  <symbol viewBox="0 0 36 36" id="icon-search" fill="currentColor">
    <g clip-path="url(#c)">
      <path d="M30.526 26.441 24.683 20.6a1.405 1.405 0 0 0-.996-.41h-.955a12.129 12.129 0 0 0 2.578-7.5C25.31 5.954 19.855.5 13.122.5 6.389.5.934 5.955.934 12.688c0 6.733 5.455 12.189 12.188 12.189 2.83 0 5.432-.961 7.5-2.578v.955c0 .375.147.732.41.996l5.843 5.842a1.4 1.4 0 0 0 1.986 0l1.659-1.658c.55-.551.55-1.442.006-1.993ZM13.122 20.19a7.496 7.496 0 0 1-7.5-7.5c0-4.143 3.351-7.501 7.5-7.501 4.143 0 7.5 3.352 7.5 7.5 0 4.143-3.351 7.5-7.5 7.5Z" />
    </g>
    <defs>
      <clipPath id="c">
        <path d="M.934.5h35v35h-35z" />
      </clipPath>
    </defs>
  </symbol>

  <symbol viewBox="0 0 372 372" id="promo-rect" fill="currentColor">
    <path fill-rule="evenodd" d="M217.188.96c-.548.184-2.341.622-3.985.976-2.263.486-28.126 25.759-106.391 103.961C9.501 203.131 3.322 209.511 1.919 214.199c-.945 3.155-1.262 6.626-.867 9.466.61 4.375 2.314 6.176 70.518 74.548 38.441 38.536 71.103 70.706 72.582 71.492 1.481.785 5.289 1.427 8.465 1.427h5.774l106.371-106.37 106.37-106.371v-5.774c0-3.29-.684-7.146-1.59-8.963-.875-1.754-32.373-34.025-69.997-71.715C235.918 8.2 230.794 3.31 226.224 1.942 221.452.514 219.247.274 217.188.96Zm58.291 94.669 55.294 55.3-89.671 89.675-89.671 89.675-55.552-55.546-55.553-55.547 89.425-89.429c49.185-49.186 89.652-89.43 89.929-89.43.277 0 25.387 24.885 55.799 55.302Z" clip-rule="evenodd" />
  </symbol>

  <symbol viewBox="0 0 894 208" id="promo-lion" fill="currentColor">
    <path d="M275 0a4 4 0 0 1 4 4v200a4 4 0 0 1-4 4h-49a4 4 0 0 1-4-4V4a4 4 0 0 1 4-4h49ZM65.174 154.644a4 4 0 0 0 4 4h54.825a4 4 0 0 1 4 4V204a4 4 0 0 1-4 4H4a4 4 0 0 1-4-4V4a4 4 0 0 1 4-4h57.174a4 4 0 0 1 4 4v150.644ZM894 204a4 4 0 0 1-4 4h-59.021a4.001 4.001 0 0 1-3.339-1.797l-60.465-91.665c-2.185-3.312-7.339-1.765-7.339 2.203V204a4 4 0 0 1-4 4h-57.174a4 4 0 0 1-4-4V4a4 4 0 0 1 4-4h59.001c1.355 0 2.618.686 3.356 1.823l60.451 93.188c2.168 3.342 7.356 1.807 7.356-2.177V4a4 4 0 0 1 4-4H890a4 4 0 0 1 4 4v200Z" />
  </symbol>
</svg>
